# xmcd
#
# Track frame offsets:
#	150
#	32058
#	50759
#	79533
#	93432
#	103832
#	114480
#	131361
#	146031
#	160129
#	176569
#	193017
#	211073
#	223383
#	238943
#	252921
#	297719
#	315669
#
# Disc length: 4511 seconds
#
# Revision: 0
# Processed by: cddbd v1.5.2PL0 Copyright (c) Steve Scherf et al.
# Submitted via: SynApp - FreeCDDB Version: 2.5
#
DISCID=13119d12
DTITLE=Canned Heat - Uncanned 2 CD
DYEAR=2000
DGENRE=Blues
TTITLE0=a
TTITLE1=a
TTITLE2=a
TTITLE3=a
TTITLE4=a
TTITLE5=a
TTITLE6=a
TTITLE7=a
TTITLE8=a
TTITLE9=a
TTITLE10=a
TTITLE11=a
TTITLE12=a
TTITLE13=a
TTITLE14=a
TTITLE15=a
TTITLE16=a
TTITLE17=a
EXTD=
EXTT0=
EXTT1=
EXTT2=
EXTT3=
EXTT4=
EXTT5=
EXTT6=
EXTT7=
EXTT8=
EXTT9=
EXTT10=
EXTT11=
EXTT12=
EXTT13=
EXTT14=
EXTT15=
EXTT16=
EXTT17=
PLAYORDER=
